<mxfile host="app.diagrams.net" modified="2024-04-10T11:26:33.463Z" agent="Mozilla/5.0 (Windows NT 10.0; Win64; x64) AppleWebKit/537.36 (KHTML, like Gecko) Chrome/122.0.0.0 Safari/537.36 Avast/122.0.0.0" etag="5_k8xCHGY8hUICxdwp7u" version="24.2.3" type="device">
  <diagram name="Pagina-1" id="9F8N3RlpaDcedxDuX7ER">
    <mxGraphModel dx="2123" dy="3461" grid="1" gridSize="10" guides="1" tooltips="1" connect="1" arrows="1" fold="1" page="1" pageScale="1" pageWidth="827" pageHeight="1169" math="0" shadow="0">
      <root>
        <mxCell id="0" />
        <mxCell id="1" parent="0" />
        <mxCell id="QpYjxqdmVLzPGoCrJZW0-2" value="&lt;font style=&quot;font-size: 25px;&quot;&gt;Start&lt;/font&gt;" style="ellipse;whiteSpace=wrap;html=1;" vertex="1" parent="1">
          <mxGeometry x="290" y="-2220" width="190" height="60" as="geometry" />
        </mxCell>
        <mxCell id="QpYjxqdmVLzPGoCrJZW0-3" value="" style="shape=singleArrow;direction=south;whiteSpace=wrap;html=1;" vertex="1" parent="1">
          <mxGeometry x="354" y="-2160" width="60" height="100" as="geometry" />
        </mxCell>
        <mxCell id="QpYjxqdmVLzPGoCrJZW0-4" value="&lt;font style=&quot;font-size: 16px;&quot;&gt;Welkom bij het avonturenspel&lt;/font&gt;" style="shape=display;whiteSpace=wrap;html=1;" vertex="1" parent="1">
          <mxGeometry x="100" y="-2060" width="510" height="40" as="geometry" />
        </mxCell>
        <mxCell id="QpYjxqdmVLzPGoCrJZW0-5" value="" style="edgeStyle=elbowEdgeStyle;elbow=vertical;endArrow=classic;html=1;curved=0;rounded=0;endSize=8;startSize=8;" edge="1" parent="1">
          <mxGeometry width="50" height="50" relative="1" as="geometry">
            <mxPoint x="490" y="-2020" as="sourcePoint" />
            <mxPoint x="700" y="-1710" as="targetPoint" />
          </mxGeometry>
        </mxCell>
        <mxCell id="QpYjxqdmVLzPGoCrJZW0-6" value="" style="edgeStyle=elbowEdgeStyle;elbow=vertical;endArrow=classic;html=1;curved=0;rounded=0;endSize=8;startSize=8;exitX=0.438;exitY=1.01;exitDx=0;exitDy=0;exitPerimeter=0;entryX=0.5;entryY=0;entryDx=0;entryDy=0;" edge="1" parent="1" target="QpYjxqdmVLzPGoCrJZW0-10">
          <mxGeometry width="50" height="50" relative="1" as="geometry">
            <mxPoint x="316.6900000000001" y="-2020" as="sourcePoint" />
            <mxPoint x="103.31" y="-1920.4" as="targetPoint" />
          </mxGeometry>
        </mxCell>
        <mxCell id="QpYjxqdmVLzPGoCrJZW0-12" value="" style="edgeStyle=orthogonalEdgeStyle;rounded=0;orthogonalLoop=1;jettySize=auto;html=1;" edge="1" parent="1" source="QpYjxqdmVLzPGoCrJZW0-8">
          <mxGeometry relative="1" as="geometry">
            <mxPoint x="490" y="-1530" as="targetPoint" />
          </mxGeometry>
        </mxCell>
        <mxCell id="QpYjxqdmVLzPGoCrJZW0-8" value="&lt;font style=&quot;font-size: 16px;&quot;&gt;Volg het pad&lt;/font&gt;" style="rounded=1;whiteSpace=wrap;html=1;" vertex="1" parent="1">
          <mxGeometry x="640" y="-1700" width="120" height="60" as="geometry" />
        </mxCell>
        <mxCell id="QpYjxqdmVLzPGoCrJZW0-24" value="" style="edgeStyle=orthogonalEdgeStyle;rounded=0;orthogonalLoop=1;jettySize=auto;html=1;" edge="1" parent="1" source="QpYjxqdmVLzPGoCrJZW0-10" target="QpYjxqdmVLzPGoCrJZW0-23">
          <mxGeometry relative="1" as="geometry" />
        </mxCell>
        <mxCell id="QpYjxqdmVLzPGoCrJZW0-26" value="" style="edgeStyle=orthogonalEdgeStyle;rounded=0;orthogonalLoop=1;jettySize=auto;html=1;" edge="1" parent="1" source="QpYjxqdmVLzPGoCrJZW0-10" target="QpYjxqdmVLzPGoCrJZW0-25">
          <mxGeometry relative="1" as="geometry" />
        </mxCell>
        <mxCell id="QpYjxqdmVLzPGoCrJZW0-10" value="&lt;font style=&quot;font-size: 16px;&quot;&gt;Ga het oude gebouw binnen&lt;/font&gt;" style="rounded=1;whiteSpace=wrap;html=1;" vertex="1" parent="1">
          <mxGeometry x="60" y="-1720" width="120" height="60" as="geometry" />
        </mxCell>
        <mxCell id="QpYjxqdmVLzPGoCrJZW0-28" value="" style="edgeStyle=orthogonalEdgeStyle;rounded=0;orthogonalLoop=1;jettySize=auto;html=1;" edge="1" parent="1" source="QpYjxqdmVLzPGoCrJZW0-16" target="QpYjxqdmVLzPGoCrJZW0-27">
          <mxGeometry relative="1" as="geometry" />
        </mxCell>
        <mxCell id="QpYjxqdmVLzPGoCrJZW0-16" value="&lt;font style=&quot;font-size: 15px;&quot;&gt;Steek de rivier over&lt;/font&gt;" style="rounded=1;whiteSpace=wrap;html=1;" vertex="1" parent="1">
          <mxGeometry x="680" y="-1530" width="120" height="60" as="geometry" />
        </mxCell>
        <mxCell id="QpYjxqdmVLzPGoCrJZW0-20" value="" style="edgeStyle=elbowEdgeStyle;elbow=horizontal;endArrow=classic;html=1;curved=0;rounded=0;endSize=8;startSize=8;exitX=1;exitY=0.5;exitDx=0;exitDy=0;" edge="1" parent="1" source="QpYjxqdmVLzPGoCrJZW0-8">
          <mxGeometry width="50" height="50" relative="1" as="geometry">
            <mxPoint x="740" y="-1638" as="sourcePoint" />
            <mxPoint x="790" y="-1530" as="targetPoint" />
            <Array as="points">
              <mxPoint x="790" y="-1660" />
              <mxPoint x="794" y="-1620" />
            </Array>
          </mxGeometry>
        </mxCell>
        <mxCell id="QpYjxqdmVLzPGoCrJZW0-22" value="&lt;font style=&quot;font-size: 16px;&quot;&gt;Keer terug en ga het oude gebouw binnen&lt;/font&gt;" style="rounded=1;whiteSpace=wrap;html=1;" vertex="1" parent="1">
          <mxGeometry x="430" y="-1530" width="120" height="60" as="geometry" />
        </mxCell>
        <mxCell id="QpYjxqdmVLzPGoCrJZW0-23" value="&lt;font style=&quot;font-size: 16px;&quot;&gt;Verlaat het gebouw en volg het pad&lt;/font&gt;" style="whiteSpace=wrap;html=1;rounded=1;" vertex="1" parent="1">
          <mxGeometry y="-1540" width="120" height="60" as="geometry" />
        </mxCell>
        <mxCell id="QpYjxqdmVLzPGoCrJZW0-25" value="&lt;font style=&quot;font-size: 16px;&quot;&gt;Verken de kelder verder&amp;nbsp;&lt;/font&gt;" style="rounded=1;whiteSpace=wrap;html=1;" vertex="1" parent="1">
          <mxGeometry x="150" y="-1540" width="120" height="60" as="geometry" />
        </mxCell>
        <mxCell id="QpYjxqdmVLzPGoCrJZW0-27" value="&lt;p style=&quot;line-height: 120%; font-size: 16px;&quot;&gt;&lt;b&gt;Gefeliciteerd&lt;/b&gt;&lt;/p&gt;" style="shape=tape;whiteSpace=wrap;html=1;rounded=1;" vertex="1" parent="1">
          <mxGeometry x="480" y="-1410" width="320" height="100" as="geometry" />
        </mxCell>
        <mxCell id="QpYjxqdmVLzPGoCrJZW0-29" style="edgeStyle=orthogonalEdgeStyle;rounded=0;orthogonalLoop=1;jettySize=auto;html=1;exitX=0;exitY=0;exitDx=40;exitDy=39;exitPerimeter=0;entryX=0;entryY=0;entryDx=40;entryDy=21;entryPerimeter=0;" edge="1" parent="1" source="QpYjxqdmVLzPGoCrJZW0-3" target="QpYjxqdmVLzPGoCrJZW0-3">
          <mxGeometry relative="1" as="geometry" />
        </mxCell>
      </root>
    </mxGraphModel>
  </diagram>
</mxfile>
